<svg xmlns="http://www.w3.org/2000/svg" width="20" height="20" viewBox="0 0 20 20" fill="none">
  <path d="M9.99994 1.375L13.1694 6.01225L18.5597 7.594L15.1284 12.0415L15.2897 17.656L9.99994 15.7675L4.71019 17.656L4.87144 12.0415L1.44019 7.594L6.83044 6.01225L9.99994 1.375ZM9.99994 4.033L7.76644 7.3015L3.96769 8.41525L6.38644 11.5487L6.27169 15.505L9.99994 14.1745L13.7274 15.505L13.6134 11.5487L16.0314 8.41525L12.2334 7.3015L9.99994 4.033ZM8.49994 10C8.49994 10.3978 8.65797 10.7794 8.93928 11.0607C9.22058 11.342 9.60211 11.5 9.99994 11.5C10.3978 11.5 10.7793 11.342 11.0606 11.0607C11.3419 10.7794 11.4999 10.3978 11.4999 10H12.9999C12.9999 10.7956 12.6839 11.5587 12.1213 12.1213C11.5586 12.6839 10.7956 13 9.99994 13C9.20429 13 8.44122 12.6839 7.87861 12.1213C7.31601 11.5587 6.99994 10.7956 6.99994 10H8.49994Z" fill="currentColor"/>
</svg>