<svg xmlns="http://www.w3.org/2000/svg" width="20" height="20" viewBox="0 0 20 20" fill="none">
  <path d="M12.2477 2.5L16.75 7L16.7507 10.195C16.3112 9.83021 15.8003 9.56122 15.2507 9.40525L15.25 7.75H11.5V4H4.75V16H8.545C8.6308 16.5406 8.84052 17.054 9.15775 17.5H3.99475C3.81244 17.5 3.63646 17.4331 3.50017 17.312C3.36387 17.1909 3.27673 17.024 3.25525 16.843L3.25 16.756V3.244C3.25 2.8705 3.54025 2.54875 3.91375 2.50525L4.0015 2.5H12.2477ZM14.125 10.75C14.8212 10.75 15.4889 11.0266 15.9812 11.5188C16.4734 12.0111 16.75 12.6788 16.75 13.375L16.7493 13.4523C17.2184 13.5844 17.6257 13.8786 17.8986 14.2824C18.1716 14.6863 18.2928 15.1738 18.2405 15.6584C18.1883 16.1431 17.9661 16.5936 17.6134 16.93C17.2606 17.2664 16.8001 17.467 16.3135 17.4963L16.1875 17.5H12.0625L11.9365 17.4963C11.45 17.4668 10.9897 17.2659 10.6372 16.9294C10.2846 16.5928 10.0627 16.1423 10.0106 15.6577C9.95858 15.1731 10.0798 14.6858 10.3529 14.2821C10.6259 13.8783 11.0331 13.5844 11.5023 13.4523L11.5 13.375C11.5 12.6788 11.7766 12.0111 12.2688 11.5188C12.7611 11.0266 13.4288 10.75 14.125 10.75ZM14.125 12.25C13.8637 12.2499 13.6105 12.3409 13.4089 12.5071C13.2073 12.6734 13.0699 12.9047 13.0203 13.1613L13.0052 13.2662L13 13.375V14.59L11.917 14.8945C11.7922 14.9278 11.6827 15.0031 11.6068 15.1076C11.5309 15.2122 11.4934 15.3396 11.5004 15.4686C11.5074 15.5976 11.5587 15.7202 11.6455 15.8159C11.7322 15.9116 11.8493 15.9745 11.977 15.994L12.0588 16H16.1912C16.3272 15.999 16.4583 15.9487 16.56 15.8585C16.6618 15.7683 16.7275 15.6443 16.7449 15.5094C16.7623 15.3745 16.7302 15.2379 16.6546 15.1249C16.579 15.0118 16.465 14.93 16.3337 14.8945L15.574 14.6823L15.25 14.59V13.375L15.2448 13.267C15.2179 12.9886 15.0883 12.7302 14.8813 12.5422C14.6743 12.3542 14.4047 12.25 14.125 12.25Z" fill="currentColor"/>
</svg>