<svg xmlns="http://www.w3.org/2000/svg" width="20" height="20" viewBox="0 0 20 20" fill="none">
  <path d="M5.6275 14.5C5.78245 14.0609 6.0698 13.6806 6.44995 13.4116C6.8301 13.1426 7.28432 12.9982 7.75 12.9982C8.21568 12.9982 8.6699 13.1426 9.05005 13.4116C9.4302 13.6806 9.71755 14.0609 9.8725 14.5H17.5V16H9.8725C9.71755 16.4392 9.4302 16.8194 9.05005 17.0884C8.6699 17.3574 8.21568 17.5018 7.75 17.5018C7.28432 17.5018 6.8301 17.3574 6.44995 17.0884C6.0698 16.8194 5.78245 16.4392 5.6275 16H2.5V14.5H5.6275ZM10.1275 9.25001C10.2825 8.81086 10.5698 8.43058 10.9499 8.1616C11.3301 7.89262 11.7843 7.74817 12.25 7.74817C12.7157 7.74817 13.1699 7.89262 13.5501 8.1616C13.9302 8.43058 14.2175 8.81086 14.3725 9.25001H17.5V10.75H14.3725C14.2175 11.1892 13.9302 11.5694 13.5501 11.8384C13.1699 12.1074 12.7157 12.2518 12.25 12.2518C11.7843 12.2518 11.3301 12.1074 10.9499 11.8384C10.5698 11.5694 10.2825 11.1892 10.1275 10.75H2.5V9.25001H10.1275ZM5.6275 4.00001C5.78245 3.56086 6.0698 3.18058 6.44995 2.9116C6.8301 2.64262 7.28432 2.49817 7.75 2.49817C8.21568 2.49817 8.6699 2.64262 9.05005 2.9116C9.4302 3.18058 9.71755 3.56086 9.8725 4.00001H17.5V5.50001H9.8725C9.71755 5.93916 9.4302 6.31943 9.05005 6.58841C8.6699 6.8574 8.21568 7.00184 7.75 7.00184C7.28432 7.00184 6.8301 6.8574 6.44995 6.58841C6.0698 6.31943 5.78245 5.93916 5.6275 5.50001H2.5V4.00001H5.6275ZM7.75 5.50001C7.94891 5.50001 8.13968 5.42099 8.28033 5.28034C8.42098 5.13968 8.5 4.94892 8.5 4.75001C8.5 4.55109 8.42098 4.36033 8.28033 4.21968C8.13968 4.07902 7.94891 4.00001 7.75 4.00001C7.55109 4.00001 7.36032 4.07902 7.21967 4.21968C7.07902 4.36033 7 4.55109 7 4.75001C7 4.94892 7.07902 5.13968 7.21967 5.28034C7.36032 5.42099 7.55109 5.50001 7.75 5.50001ZM12.25 10.75C12.4489 10.75 12.6397 10.671 12.7803 10.5303C12.921 10.3897 13 10.1989 13 10C13 9.8011 12.921 9.61033 12.7803 9.46968C12.6397 9.32902 12.4489 9.25001 12.25 9.25001C12.0511 9.25001 11.8603 9.32902 11.7197 9.46968C11.579 9.61033 11.5 9.8011 11.5 10C11.5 10.1989 11.579 10.3897 11.7197 10.5303C11.8603 10.671 12.0511 10.75 12.25 10.75ZM7.75 16C7.94891 16 8.13968 15.921 8.28033 15.7803C8.42098 15.6397 8.5 15.4489 8.5 15.25C8.5 15.0511 8.42098 14.8603 8.28033 14.7197C8.13968 14.579 7.94891 14.5 7.75 14.5C7.55109 14.5 7.36032 14.579 7.21967 14.7197C7.07902 14.8603 7 15.0511 7 15.25C7 15.4489 7.07902 15.6397 7.21967 15.7803C7.36032 15.921 7.55109 16 7.75 16Z" fill="currentColor"/>
</svg>