<svg xmlns="http://www.w3.org/2000/svg" width="20" height="20" viewBox="0 0 20 20" fill="none">
<path d="M8.75431 3.81492C7.87834 3.53135 6.92607 3.92578 6.50716 4.74572L6.00355 5.73145C5.94371 5.84858 5.84846 5.94383 5.73133 6.00367L4.7456 6.50728C3.92566 6.92619 3.53123 7.87846 3.81479 8.75443L4.15571 9.80756C4.19621 9.93268 4.19621 10.0674 4.15571 10.1926L3.81479 11.2457C3.53123 12.1217 3.92566 13.0739 4.7456 13.4929L5.73133 13.9964C5.84846 14.0563 5.94371 14.1516 6.00355 14.2687L6.50716 15.2544C6.92607 16.0744 7.87834 16.4688 8.75431 16.1852L9.80744 15.8443C9.93256 15.8038 10.0673 15.8038 10.1924 15.8443L11.2456 16.1852C12.1216 16.4688 13.0738 16.0744 13.4928 15.2544L13.9963 14.2687C14.0562 14.1516 14.1514 14.0563 14.2686 13.9964L15.2543 13.4929C16.0743 13.0739 16.4687 12.1217 16.1851 11.2457L15.8442 10.1926C15.8037 10.0674 15.8037 9.93268 15.8442 9.80756L16.1851 8.75443C16.4687 7.87846 16.0743 6.92619 15.2543 6.50728L14.2686 6.00367C14.1514 5.94383 14.0562 5.84858 13.9963 5.73145L13.4928 4.74572C13.0738 3.92578 12.1216 3.53135 11.2456 3.81492L10.1924 4.15583C10.0673 4.19633 9.93256 4.19633 9.80744 4.15583L8.75431 3.81492ZM6.72479 9.84837L7.60868 8.96443L9.37644 10.7322L12.912 7.19672L13.7959 8.0806L9.37644 12.5L6.72479 9.84837Z" fill="#35B9E9"/>
</svg>