<svg xmlns="http://www.w3.org/2000/svg" width="20" height="20" viewBox="0 0 20 20" fill="none">
  <path d="M14.2134 5.476L15.3032 4.38625L16.3637 5.44675L15.2739 6.5365C16.3507 7.88438 16.8706 9.59341 16.7267 11.3126C16.5829 13.0318 15.7862 14.6306 14.5003 15.7808C13.2144 16.9309 11.5369 17.5451 9.81241 17.4971C8.08788 17.4491 6.44718 16.7425 5.22728 15.5226C4.00737 14.3027 3.30087 12.662 3.25286 10.9375C3.20485 9.21298 3.81899 7.53551 4.96913 6.24963C6.11928 4.96375 7.71813 4.16706 9.43732 4.02319C11.1565 3.87931 12.8655 4.39917 14.2134 5.476ZM9.99992 16C10.6894 16 11.3721 15.8642 12.009 15.6004C12.646 15.3365 13.2247 14.9498 13.7122 14.4623C14.1997 13.9748 14.5865 13.396 14.8503 12.7591C15.1141 12.1221 15.2499 11.4394 15.2499 10.75C15.2499 10.0606 15.1141 9.37787 14.8503 8.74091C14.5865 8.10395 14.1997 7.5252 13.7122 7.03769C13.2247 6.55018 12.646 6.16347 12.009 5.89963C11.3721 5.6358 10.6894 5.5 9.99992 5.5C8.60754 5.5 7.27218 6.05312 6.28761 7.03769C5.30305 8.02226 4.74992 9.35761 4.74992 10.75C4.74992 12.1424 5.30305 13.4777 6.28761 14.4623C7.27218 15.4469 8.60754 16 9.99992 16ZM9.24992 7H10.7499V11.5H9.24992V7ZM6.99992 1.75H12.9999V3.25H6.99992V1.75Z" fill="currentColor"/>
</svg>