<svg xmlns="http://www.w3.org/2000/svg" width="304" height="150" viewBox="0 0 304 150" fill="none">
<path d="M1.14288 25.6667V1H26.2857M1.14288 25.6667V50.3333M1.14288 25.6667H26.2857M1.14288 50.3333V75M1.14288 50.3333H26.2857M1.14288 75V99.6667M1.14288 75H26.2857M1.14288 99.6667V124.333M1.14288 99.6667H26.2857M1.14288 124.333V149H26.2857M1.14288 124.333H26.2857M26.2857 1V25.6667M26.2857 1H51.4286M26.2857 25.6667V50.3333M26.2857 25.6667H51.4286M26.2857 50.3333V75M26.2857 50.3333H51.4286M26.2857 75V99.6667M26.2857 75H51.4286M26.2857 99.6667V124.333M26.2857 99.6667H51.4286M26.2857 124.333V149M26.2857 124.333H51.4286M26.2857 149H51.4286M51.4286 1V25.6667M51.4286 1H76.5715M51.4286 25.6667V50.3333M51.4286 25.6667H76.5715M51.4286 50.3333V75M51.4286 50.3333H76.5715M51.4286 75V99.6667M51.4286 75H76.5715M51.4286 99.6667V124.333M51.4286 99.6667H76.5715M51.4286 124.333V149M51.4286 124.333H76.5715M51.4286 149H76.5715M76.5715 1V25.6667M76.5715 1H101.714M76.5715 25.6667V50.3333M76.5715 25.6667H101.714M76.5715 50.3333V75M76.5715 50.3333H101.714M76.5715 75V99.6667M76.5715 75H101.714M76.5715 99.6667V124.333M76.5715 99.6667H101.714M76.5715 124.333V149M76.5715 124.333H101.714M76.5715 149H101.714M101.714 1V25.6667M101.714 1H126.857M101.714 25.6667V50.3333M101.714 25.6667H126.857M101.714 50.3333V75M101.714 50.3333H126.857M101.714 75V99.6667M101.714 75H126.857M101.714 99.6667V124.333M101.714 99.6667H126.857M101.714 124.333V149M101.714 124.333H126.857M101.714 149H126.857M126.857 1V25.6667M126.857 1H152M126.857 25.6667V50.3333M126.857 25.6667H152M126.857 50.3333V75M126.857 50.3333H152M126.857 75V99.6667M126.857 75H152M126.857 99.6667V124.333M126.857 99.6667H152M126.857 124.333V149M126.857 124.333H152M126.857 149H152M152 1V25.6667M152 1H177.143M152 25.6667V50.3333M152 25.6667H177.143M152 50.3333V75M152 50.3333H177.143M152 75V99.6667M152 75H177.143M152 99.6667V124.333M152 99.6667H177.143M152 124.333V149M152 124.333H177.143M152 149H177.143M177.143 1V25.6667M177.143 1H202.286M177.143 25.6667V50.3333M177.143 25.6667H202.286M177.143 50.3333V75M177.143 50.3333H202.286M177.143 75V99.6667M177.143 75H202.286M177.143 99.6667V124.333M177.143 99.6667H202.286M177.143 124.333V149M177.143 124.333H202.286M177.143 149H202.286M202.286 1V25.6667M202.286 1H227.429M202.286 25.6667V50.3333M202.286 25.6667H227.429M202.286 50.3333V75M202.286 50.3333H227.429M202.286 75V99.6667M202.286 75H227.429M202.286 99.6667V124.333M202.286 99.6667H227.429M202.286 124.333V149M202.286 124.333H227.429M202.286 149H227.429M227.429 1V25.6667M227.429 1H252.571M227.429 25.6667V50.3333M227.429 25.6667H252.571M227.429 50.3333V75M227.429 50.3333H252.571M227.429 75V99.6667M227.429 75H252.571M227.429 99.6667V124.333M227.429 99.6667H252.571M227.429 124.333V149M227.429 124.333H252.571M227.429 149H252.571M252.571 1V25.6667M252.571 1H277.714M252.571 25.6667V50.3333M252.571 25.6667H277.714M252.571 50.3333V75M252.571 50.3333H277.714M252.571 75V99.6667M252.571 75H277.714M252.571 99.6667V124.333M252.571 99.6667H277.714M252.571 124.333V149M252.571 124.333H277.714M252.571 149H277.714M277.714 1V25.6667M277.714 1H302.857V25.6667M277.714 25.6667V50.3333M277.714 25.6667H302.857M277.714 50.3333V75M277.714 50.3333H302.857M277.714 75V99.6667M277.714 75H302.857M277.714 99.6667V124.333M277.714 99.6667H302.857M277.714 124.333V149M277.714 124.333H302.857M277.714 149H302.857V124.333M302.857 25.6667V50.3333M302.857 50.3333V75M302.857 75V99.6667M302.857 99.6667V124.333" stroke="url(#paint0_radial_644_57)"/>
<defs>
<radialGradient id="paint0_radial_644_57" cx="0" cy="0" r="1" gradientUnits="userSpaceOnUse" gradientTransform="translate(152 75) rotate(90) scale(74 122.255)">
<stop stop-color="#CFD1D3"/>
<stop offset="1" stop-color="#CFD1D3" stop-opacity="0"/>
</radialGradient>
</defs>
</svg>