<svg xmlns="http://www.w3.org/2000/svg" width="152" height="152" viewBox="0 0 152 152" fill="none">
<g filter="url(#filter0_d_644_61)">
<path d="M74.5139 7.64995C75.3083 6.76794 76.6917 6.76794 77.4861 7.64995L82.6679 13.4031C83.3261 14.1339 84.418 14.2777 85.243 13.7421L91.7372 9.52615C92.7328 8.8798 94.069 9.23783 94.6081 10.2954L98.1243 17.1937C98.571 18.0699 99.5884 18.4914 100.524 18.1876L107.888 15.7961C109.017 15.4295 110.215 16.1212 110.462 17.2822L112.073 24.8555C112.278 25.8175 113.151 26.488 114.134 26.4366L121.866 26.0326C123.051 25.9707 124.029 26.9488 123.967 28.1342L123.563 35.8664C123.512 36.8486 124.182 37.7224 125.145 37.927L132.718 39.538C133.879 39.785 134.571 40.983 134.204 42.112L131.812 49.4761C131.509 50.4116 131.93 51.429 132.806 51.8757L139.705 55.3919C140.762 55.931 141.12 57.2672 140.474 58.2628L136.258 64.757C135.722 65.582 135.866 66.6739 136.597 67.3321L142.35 72.5139C143.232 73.3083 143.232 74.6917 142.35 75.4861L136.597 80.6679C135.866 81.3261 135.722 82.418 136.258 83.243L140.474 89.7372C141.12 90.7328 140.762 92.069 139.705 92.6081L132.806 96.1243C131.93 96.571 131.509 97.5884 131.812 98.5239L134.204 105.888C134.571 107.017 133.879 108.215 132.718 108.462L125.145 110.073C124.182 110.278 123.512 111.151 123.563 112.134L123.967 119.866C124.029 121.051 123.051 122.029 121.866 121.967L114.134 121.563C113.151 121.512 112.278 122.182 112.073 123.145L110.462 130.718C110.215 131.879 109.017 132.571 107.888 132.204L100.524 129.812C99.5884 129.509 98.571 129.93 98.1243 130.806L94.6081 137.705C94.069 138.762 92.7328 139.12 91.7372 138.474L85.243 134.258C84.418 133.722 83.3261 133.866 82.6679 134.597L77.4861 140.35C76.6917 141.232 75.3083 141.232 74.5139 140.35L69.3321 134.597C68.6739 133.866 67.582 133.722 66.757 134.258L60.2628 138.474C59.2672 139.12 57.931 138.762 57.3919 137.705L53.8757 130.806C53.429 129.93 52.4116 129.509 51.4761 129.812L44.112 132.204C42.983 132.571 41.785 131.879 41.538 130.718L39.927 123.145C39.7224 122.182 38.8486 121.512 37.8664 121.563L30.1342 121.967C28.9488 122.029 27.9707 121.051 28.0326 119.866L28.4366 112.134C28.488 111.151 27.8175 110.278 26.8555 110.073L19.2822 108.462C18.1212 108.215 17.4295 107.017 17.7961 105.888L20.1876 98.5239C20.4914 97.5884 20.0699 96.571 19.1937 96.1243L12.2954 92.6081C11.2378 92.069 10.8798 90.7328 11.5261 89.7372L15.7421 83.243C16.2777 82.418 16.1339 81.3261 15.4031 80.6679L9.64995 75.4861C8.76794 74.6917 8.76794 73.3083 9.64995 72.5139L15.4031 67.3321C16.1339 66.6739 16.2777 65.582 15.7421 64.757L11.5261 58.2628C10.8798 57.2672 11.2378 55.931 12.2954 55.3919L19.1937 51.8757C20.0699 51.429 20.4914 50.4116 20.1876 49.4761L17.7961 42.112C17.4295 40.983 18.1212 39.785 19.2822 39.538L26.8555 37.927C27.8175 37.7224 28.488 36.8486 28.4366 35.8664L28.0326 28.1342C27.9707 26.9488 28.9488 25.9707 30.1342 26.0326L37.8664 26.4366C38.8486 26.488 39.7224 25.8175 39.927 24.8555L41.538 17.2822C41.785 16.1212 42.983 15.4295 44.112 15.7961L51.4761 18.1876C52.4116 18.4914 53.429 18.0699 53.8757 17.1937L57.3919 10.2954C57.931 9.23783 59.2672 8.8798 60.2628 9.52615L66.757 13.7421C67.582 14.2777 68.6739 14.1339 69.3321 13.4031L74.5139 7.64995Z" fill="white"/>
<path d="M78.9722 6.31146L77.4861 7.64995L78.9722 6.31145C77.3833 4.54744 74.6167 4.54743 73.0278 6.31146L67.8461 12.0646L61.3518 7.84864C59.3606 6.55594 56.6882 7.27201 55.61 9.38714L52.0938 16.2854L44.7297 13.8939C42.4717 13.1606 40.0757 14.544 39.5818 16.8661L37.9708 24.4394L30.2386 24.0353C27.8678 23.9115 25.9115 25.8678 26.0353 28.2386L26.4394 35.9708L18.8661 37.5818C16.544 38.0757 15.1606 40.4717 15.8939 42.7297L18.2854 50.0938L11.3871 53.61C9.272 54.6882 8.55594 57.3606 9.84863 59.3518L14.0646 65.8461L8.31145 71.0278L9.64995 72.5139L8.31145 71.0278C6.54743 72.6167 6.54744 75.3833 8.31145 76.9722L9.64297 75.4938L8.31146 76.9722L14.0646 82.1539L9.84863 88.6482L11.5261 89.7372L9.84863 88.6482C8.55594 90.6395 9.27201 93.3118 11.3871 94.39L18.2854 97.9062L15.8939 105.27C15.1606 107.528 16.544 109.924 18.8661 110.418L26.4394 112.029L26.0353 119.761C25.9115 122.132 27.8678 124.089 30.2386 123.965L37.9708 123.561L39.5818 131.134C40.0757 133.456 42.4717 134.839 44.7297 134.106L52.0938 131.715L55.61 138.613C56.6881 140.728 59.3605 141.444 61.3518 140.151L67.8461 135.935L73.0278 141.689C74.6167 143.453 77.3833 143.453 78.9722 141.689L84.1539 135.935L90.6482 140.151C92.6395 141.444 95.3119 140.728 96.39 138.613L99.9062 131.715L107.27 134.106C109.528 134.839 111.924 133.456 112.418 131.134L114.029 123.561L121.761 123.965C124.132 124.089 126.089 122.132 125.965 119.761L125.561 112.029L133.134 110.418C135.456 109.924 136.839 107.528 136.106 105.27L133.715 97.9062L140.613 94.39C142.728 93.3119 143.444 90.6394 142.151 88.6482L137.935 82.1539L143.689 76.9722C145.453 75.3833 145.453 72.6167 143.689 71.0278L137.935 65.8461L142.151 59.3518C143.444 57.3605 142.728 54.6881 140.613 53.61L133.715 50.0938L136.106 42.7297C136.839 40.4717 135.456 38.0757 133.134 37.5818L125.561 35.9708L125.965 28.2386C126.089 25.8678 124.132 23.9115 121.761 24.0353L114.029 24.4394L112.418 16.8661C111.924 14.544 109.528 13.1606 107.27 13.8939L99.9062 16.2854L96.39 9.38714C95.3118 7.27201 92.6394 6.55594 90.6482 7.84864L84.1539 12.0646L78.9722 6.31146Z" stroke="white" stroke-width="4"/>
</g>
<defs>
<filter id="filter0_d_644_61" x="0.988464" y="0.988464" width="150.023" height="150.023" filterUnits="userSpaceOnUse" color-interpolation-filters="sRGB">
<feFlood flood-opacity="0" result="BackgroundImageFix"/>
<feColorMatrix in="SourceAlpha" type="matrix" values="0 0 0 0 0 0 0 0 0 0 0 0 0 0 0 0 0 0 127 0" result="hardAlpha"/>
<feOffset dy="2"/>
<feGaussianBlur stdDeviation="2"/>
<feColorMatrix type="matrix" values="0 0 0 0 0.105882 0 0 0 0 0.109804 0 0 0 0 0.113725 0 0 0 0.04 0"/>
<feBlend mode="normal" in2="BackgroundImageFix" result="effect1_dropShadow_644_61"/>
<feBlend mode="normal" in="SourceGraphic" in2="effect1_dropShadow_644_61" result="shape"/>
</filter>
</defs>
</svg>