<svg xmlns="http://www.w3.org/2000/svg" width="24" height="24" viewBox="0 0 24 24" fill="none">
<path d="M12 1.64999L15.8034 7.21469L22.2717 9.11279L18.1542 14.4498L18.3477 21.1872L12 18.921L5.65227 21.1872L5.84577 14.4498L1.72827 9.11279L8.19657 7.21469L12 1.64999ZM12 4.83959L9.31977 8.76179L4.76127 10.0983L7.66377 13.8585L7.52607 18.606L12 17.0094L16.473 18.606L16.3362 13.8585L19.2378 10.0983L14.6802 8.76179L12 4.83959ZM10.2 12C10.2 12.4774 10.3896 12.9352 10.7272 13.2728C11.0647 13.6104 11.5226 13.8 12 13.8C12.4774 13.8 12.9352 13.6104 13.2728 13.2728C13.6103 12.9352 13.8 12.4774 13.8 12H15.6C15.6 12.9548 15.2207 13.8704 14.5456 14.5456C13.8704 15.2207 12.9548 15.6 12 15.6C11.0452 15.6 10.1295 15.2207 9.45439 14.5456C8.77926 13.8704 8.39997 12.9548 8.39997 12H10.2Z" fill="#525866"/>
</svg>