<svg xmlns="http://www.w3.org/2000/svg" width="20" height="19" viewBox="0 0 20 19" fill="none">
  <path d="M11.8 18.45L9.28001 15.3H4.60001C4.36131 15.3 4.13239 15.2052 3.96361 15.0364C3.79483 14.8676 3.70001 14.6387 3.70001 14.4V4.5927C3.70001 4.35401 3.79483 4.12509 3.96361 3.9563C4.13239 3.78752 4.36131 3.6927 4.60001 3.6927H19C19.2387 3.6927 19.4676 3.78752 19.6364 3.9563C19.8052 4.12509 19.9 4.35401 19.9 4.5927V14.4C19.9 14.6387 19.8052 14.8676 19.6364 15.0364C19.4676 15.2052 19.2387 15.3 19 15.3H14.32L11.8 18.45ZM13.4551 13.5H18.1V5.4927H5.50001V13.5H10.1449L11.8 15.5682L13.4551 13.5ZM1.00001 0H16.3V1.8H1.90001V11.7H0.100006V0.9C0.100006 0.661305 0.194827 0.432387 0.36361 0.263604C0.532393 0.0948211 0.761311 0 1.00001 0Z" fill="#525866"/>
</svg>