<svg xmlns="http://www.w3.org/2000/svg" width="16" height="14" viewBox="0 0 16 14" fill="none">
<path d="M8.04375 13.875L7.6875 13.7185C6.5875 13.0735 5 12.1406 3.55 10.7881C1.525 8.89094 0.5 6.8059 0.5 4.59563C0.5 2.08481 2.3125 0.125 4.625 0.125C5.8 0.125 7.0625 0.682263 8 1.61521C8.9375 0.682263 10.2 0.125 11.375 0.125C13.725 0.125 15.5 2.04724 15.5 4.59563C15.5 6.81216 14.475 8.89094 12.45 10.7881C11 12.1469 9.34375 13.1174 8.35625 13.6934L8.04375 13.875ZM4.625 1.37728C2.9875 1.37728 1.75 2.76104 1.75 4.59563C1.75 6.43021 2.64375 8.22097 4.4 9.86771C5.63125 11.0198 7.00625 11.8651 8 12.4474C9.03125 11.8401 10.3813 11.0073 11.6 9.86771C13.3562 8.22097 14.25 6.449 14.25 4.59563C14.25 2.74226 13.0125 1.37728 11.375 1.37728C10.1125 1.37728 9.14375 2.24135 8.88125 2.50433L8 3.37466L7.11875 2.50433C6.85 2.24135 5.8875 1.37728 4.625 1.37728Z" fill="#CDD0D5"/>
</svg>