<svg xmlns="http://www.w3.org/2000/svg" width="24" height="24" viewBox="0 0 24 24" fill="none">
<path d="M20.1 4.8H7.50002C7.02263 4.8 6.5648 4.98964 6.22723 5.32721C5.88967 5.66477 5.70002 6.12261 5.70002 6.6C5.70002 7.07739 5.88967 7.53523 6.22723 7.87279C6.5648 8.21036 7.02263 8.4 7.50002 8.4H20.1V20.1C20.1 20.3387 20.0052 20.5676 19.8364 20.7364C19.6676 20.9052 19.4387 21 19.2 21H7.50002C6.54525 21 5.62957 20.6207 4.95444 19.9456C4.27931 19.2705 3.90002 18.3548 3.90002 17.4V6.6C3.90002 5.64522 4.27931 4.72955 4.95444 4.05442C5.62957 3.37928 6.54525 3 7.50002 3H19.2C19.4387 3 19.6676 3.09482 19.8364 3.2636C20.0052 3.43239 20.1 3.66131 20.1 3.9V4.8ZM5.70002 17.4C5.70002 17.8774 5.88967 18.3352 6.22723 18.6728C6.5648 19.0104 7.02263 19.2 7.50002 19.2H18.3V10.2H7.50002C6.86807 10.201 6.24708 10.0349 5.70002 9.7185V17.4ZM19.2 7.5H7.50002C7.26133 7.5 7.03241 7.40518 6.86363 7.2364C6.69485 7.06761 6.60002 6.83869 6.60002 6.6C6.60002 6.3613 6.69485 6.13239 6.86363 5.9636C7.03241 5.79482 7.26133 5.7 7.50002 5.7H19.2V7.5Z" fill="#525866"/>
</svg>