<svg xmlns="http://www.w3.org/2000/svg" width="24" height="24" viewBox="0 0 24 24" fill="none">
<path d="M21.75 10.9164H16.0476L20.9867 8.06518L19.9017 6.18482L14.964 9.03739L17.8138 4.09832L15.9348 3.01329L13.0864 7.95096V2.25H10.9136V7.95236L8.06379 3.01329L6.18621 4.09832L9.036 9.036L4.09832 6.18621L3.01329 8.06379L7.95236 10.915H2.25V13.0836H7.95096L3.01329 15.9348L4.09832 17.8152L9.036 14.964L6.18482 19.9017L8.06518 20.9867L10.915 16.0476V21.75H13.0836V16.0476L15.9348 20.9867L17.8138 19.9017L14.9626 14.9626L19.9003 17.8138L20.9853 15.9348L16.0476 13.085H21.7486L21.75 10.9164ZM12 14.9501C11.2146 14.9501 10.4614 14.6381 9.90611 14.0828C9.35077 13.5274 9.03879 12.7742 9.03879 11.9889C9.03879 11.2035 9.35077 10.4503 9.90611 9.89496C10.4614 9.33963 11.2146 9.02764 12 9.02764C12.7854 9.02764 13.5386 9.33963 14.0939 9.89496C14.6492 10.4503 14.9612 11.2035 14.9612 11.9889C14.9612 12.7742 14.6492 13.5274 14.0939 14.0828C13.5386 14.6381 12.7854 14.9501 12 14.9501Z" fill="#625DF5"/>
</svg>