<svg xmlns="http://www.w3.org/2000/svg" width="20" height="20" viewBox="0 0 20 20" fill="none">
    <path d="M16 13.75H17.5V15.25H2.5V13.75H4V8.5C4 6.9087 4.63214 5.38258 5.75736 4.25736C6.88258 3.13214 8.4087 2.5 10 2.5C11.5913 2.5 13.1174 3.13214 14.2426 4.25736C15.3679 5.38258 16 6.9087 16 8.5V13.75ZM14.5 13.75V8.5C14.5 7.30653 14.0259 6.16193 13.182 5.31802C12.3381 4.47411 11.1935 4 10 4C8.80653 4 7.66193 4.47411 6.81802 5.31802C5.97411 6.16193 5.5 7.30653 5.5 8.5V13.75H14.5ZM7.75 16.75H12.25V18.25H7.75V16.75Z" fill="#525866"/>
</svg>