<svg xmlns="http://www.w3.org/2000/svg" width="17" height="16" viewBox="0 0 17 16" fill="none">
<path d="M12.9256 8.24962L6.56618 12.4892C6.521 12.5193 6.46851 12.5365 6.41431 12.5391C6.36011 12.5417 6.30622 12.5296 6.25837 12.5039C6.21053 12.4783 6.17054 12.4402 6.14264 12.3937C6.11475 12.3471 6.1 12.2939 6.09998 12.2396V3.76042C6.1 3.70615 6.11475 3.65291 6.14264 3.60636C6.17054 3.55982 6.21053 3.52171 6.25837 3.49609C6.30622 3.47048 6.36011 3.45832 6.41431 3.46091C6.46851 3.46351 6.521 3.48075 6.56618 3.51082L12.9256 7.75042C12.9667 7.77781 13.0004 7.81493 13.0237 7.85847C13.047 7.90201 13.0591 7.95063 13.0591 8.00002C13.0591 8.0494 13.047 8.09802 13.0237 8.14156C13.0004 8.1851 12.9667 8.22222 12.9256 8.24962Z" fill="#FF4A00"/>
</svg>