<svg width="108" height="108" viewBox="0 0 108 108" fill="none" xmlns="http://www.w3.org/2000/svg">
<rect width="108" height="108" rx="54" fill="#F6F8FA"/>
<path d="M94.1352 79.5405C94.1352 79.5405 89.7568 79.5554 89.7568 83.9189C89.7568 79.5554 85.3784 79.5405 85.3784 79.5405C85.3784 79.5405 89.7568 79.5256 89.7568 75.1621C89.7568 79.5256 94.1352 79.5405 94.1352 79.5405Z" fill="white" stroke="#868C98" stroke-linecap="round" stroke-linejoin="round"/>
<path d="M17.5135 18.9729C17.5135 18.9729 13.1351 18.9878 13.1351 23.3512C13.1351 18.9878 8.75671 18.9729 8.75671 18.9729C8.75671 18.9729 13.1351 18.958 13.1351 14.5945C13.1351 18.958 17.5135 18.9729 17.5135 18.9729Z" fill="white" stroke="#868C98" stroke-linecap="round" stroke-linejoin="round"/>
<rect x="19.6819" y="33.0225" width="51.2758" height="57.4641" rx="4.46724" fill="#E2E4E9" stroke="#868C98" stroke-linejoin="round"/>
<rect x="24.5188" y="26.218" width="51.2758" height="57.4641" rx="4.46724" fill="#F6F8FA" stroke="#868C98" stroke-linejoin="round"/>
<rect x="30.5801" y="33.0225" width="39.1529" height="38.7951" fill="#E2E4E9" stroke="#868C98" stroke-linejoin="round"/>
<rect x="30.5801" y="33.0225" width="39.1529" height="38.7951" fill="white" stroke="#868C98" stroke-linejoin="round"/>
<ellipse cx="50.2133" cy="46.4975" rx="7.77161" ry="8.08247" fill="#868C98" stroke="#868C98" stroke-miterlimit="10"/>
<path d="M66.9552 71.3784C66.9552 69.1724 66.5207 66.988 65.6765 64.95C64.8323 62.9119 63.595 61.0601 62.0351 59.5002C60.4752 57.9403 58.6234 56.703 56.5853 55.8588C54.5472 55.0146 52.3629 54.5801 50.1569 54.5801C47.9509 54.5801 45.7665 55.0146 43.7284 55.8588C41.6903 56.703 39.8385 57.9403 38.2786 59.5002C36.7188 61.0601 35.4814 62.9119 34.6372 64.95C33.793 66.988 33.3585 69.1724 33.3585 71.3784L66.9552 71.3784Z" fill="#868C98" stroke="#868C98" stroke-miterlimit="10"/>
<path d="M65.0571 40.8223L75.7942 43.6993L71.2454 60.6756L67.7042 52.4175L60.5083 57.7986L65.0571 40.8223Z" fill="white" stroke="#868C98" stroke-linejoin="round"/>
<path d="M86.5312 40.8223L75.7941 43.6993L80.3429 60.6756L83.8842 52.4175L91.08 57.7986L86.5312 40.8223Z" fill="white" stroke="#868C98" stroke-linejoin="round"/>
<path d="M72.6695 13.6028C74.0788 11.2333 77.5095 11.2333 78.9188 13.6028C79.8516 15.171 81.8025 15.8049 83.479 15.0844C86.0118 13.9959 88.7873 16.0124 88.5348 18.7577C88.3676 20.5748 89.5733 22.2342 91.3531 22.6368C94.042 23.2449 95.1022 26.5077 93.2842 28.5802C92.0809 29.952 92.0809 32.0032 93.2842 33.375C95.1022 35.4476 94.042 38.7103 91.3531 39.3185C89.5733 39.721 88.3676 41.3805 88.5348 43.1976C88.7873 45.9428 86.0118 47.9593 83.479 46.8708C81.8025 46.1503 79.8516 46.7842 78.9188 48.3525C77.5095 50.7219 74.0788 50.7219 72.6695 48.3525C71.7367 46.7842 69.7859 46.1503 68.1094 46.8708C65.5765 47.9593 62.801 45.9428 63.0536 43.1976C63.2207 41.3805 62.015 39.721 60.2352 39.3185C57.5463 38.7103 56.4862 35.4476 58.3041 33.375C59.5074 32.0032 59.5074 29.952 58.3041 28.5802C56.4862 26.5077 57.5463 23.2449 60.2352 22.6368C62.015 22.2342 63.2207 20.5748 63.0536 18.7577C62.801 16.0124 65.5765 13.9959 68.1094 15.0844C69.7859 15.8049 71.7367 15.171 72.6695 13.6028Z" fill="#E2E4E9" stroke="#868C98"/>
<ellipse cx="75.7943" cy="30.9775" rx="11.9458" ry="11.9458" fill="white" stroke="#868C98"/>
<path d="M68.5951 27.7231L70.4821 29.5977L68.5409 31.5518C68.343 31.751 68.344 32.073 68.5433 32.271C68.7426 32.4689 69.0646 32.4678 69.2625 32.2686L71.5621 29.9537C71.76 29.7544 71.7589 29.4324 71.5597 29.2345L69.3119 27.0015C69.1126 26.8036 68.7906 26.8047 68.5927 27.0039C68.3947 27.2032 68.3958 27.5252 68.5951 27.7231Z" fill="#868C98"/>
<path d="M82.5332 26.9578L80.3002 29.2056C80.2058 29.3006 80.152 29.4317 80.1524 29.5657C80.1529 29.6996 80.2076 29.8304 80.3026 29.9248L82.6174 32.2243C82.8167 32.4223 83.1387 32.4212 83.3366 32.222C83.5346 32.0227 83.5335 31.7007 83.3343 31.5028L81.3802 29.5616L83.2548 27.6746C83.4527 27.4753 83.4516 27.1533 83.2524 26.9554C83.0531 26.7575 82.7311 26.7585 82.5332 26.9578Z" fill="#868C98"/>
<path d="M72.329 36.1636L79.5835 36.1396C79.8644 36.1386 80.0913 35.9102 80.0904 35.6293C80.0895 35.3484 79.861 35.1215 79.5801 35.1224L72.3256 35.1465C72.0448 35.1474 71.8178 35.3759 71.8188 35.6567C71.8197 35.9376 72.0481 36.1645 72.329 36.1636Z" fill="#868C98"/>
</svg>
