<svg xmlns="http://www.w3.org/2000/svg" width="20" height="20" viewBox="0 0 20 20" fill="none">
  <path d="M10 4C8.4087 4 6.88258 4.63214 5.75736 5.75736C4.63214 6.88258 4 8.4087 4 10H6.25C6.64782 10 7.02936 10.158 7.31066 10.4393C7.59196 10.7206 7.75 11.1022 7.75 11.5V15.25C7.75 15.6478 7.59196 16.0294 7.31066 16.3107C7.02936 16.592 6.64782 16.75 6.25 16.75H4C3.60218 16.75 3.22064 16.592 2.93934 16.3107C2.65804 16.0294 2.5 15.6478 2.5 15.25V10C2.5 5.85775 5.85775 2.5 10 2.5C14.1423 2.5 17.5 5.85775 17.5 10V15.25C17.5 15.6478 17.342 16.0294 17.0607 16.3107C16.7794 16.592 16.3978 16.75 16 16.75H13.75C13.3522 16.75 12.9706 16.592 12.6893 16.3107C12.408 16.0294 12.25 15.6478 12.25 15.25V11.5C12.25 11.1022 12.408 10.7206 12.6893 10.4393C12.9706 10.158 13.3522 10 13.75 10H16C16 8.4087 15.3679 6.88258 14.2426 5.75736C13.1174 4.63214 11.5913 4 10 4ZM4 11.5V15.25H6.25V11.5H4ZM13.75 11.5V15.25H16V11.5H13.75Z" fill="currentColor"/>
</svg>