<svg width="72" height="72" viewBox="0 0 72 72" fill="none" xmlns="http://www.w3.org/2000/svg">
<rect width="72" height="72" rx="36" fill="#F6F8FA"/>
<path d="M61.7388 58.0223V57.998" stroke="#868C98" stroke-linecap="round" stroke-linejoin="round"/>
<path d="M61.7276 55.4468V55.292" stroke="#868C98" stroke-linecap="round" stroke-linejoin="round"/>
<path d="M61.7388 57.9942V57.9979C61.7388 58.4567 61.4087 58.7663 60.7932 58.7663H12.7566C12.1187 58.7663 11.7868 58.4325 11.8147 57.9438V55.3962C11.8539 55.8103 12.1803 56.0826 12.7566 56.0826H60.7932C61.3471 56.0826 61.6698 55.8327 61.7276 55.4466L61.7388 57.9942Z" fill="#CDD0D5" stroke="#868C98" stroke-linecap="round" stroke-linejoin="round"/>
<path d="M11.8148 55.3962V55.3235" stroke="#868C98" stroke-linecap="round" stroke-linejoin="round"/>
<path d="M53.3825 20.939H20.1681C19.1078 20.939 18.2482 21.7986 18.2482 22.8589V43.552C18.2482 44.6123 19.1078 45.4719 20.1681 45.4719H53.3825C54.4429 45.4719 55.3025 44.6123 55.3025 43.552V22.8589C55.3025 21.7986 54.4429 20.939 53.3825 20.939Z" fill="#E2E4E9" stroke="#868C98" stroke-linecap="round" stroke-linejoin="round"/>
<path d="M52.6315 23.3801H20.9191V43.031H52.6315V23.3801Z" fill="white" stroke="#868C98" stroke-linecap="round" stroke-linejoin="round"/>
<path d="M61.7276 55.4467C61.6698 55.8327 61.3472 56.0826 60.7933 56.0826H12.7566C12.1803 56.0826 11.8539 55.8103 11.8148 55.3963C11.7887 55.1165 11.8968 54.7715 12.1467 54.4041L17.6074 46.4108C17.9655 45.8848 18.8141 45.4727 19.5116 45.4727H54.0401C54.7376 45.4727 55.5843 45.8848 55.9443 46.4108L61.4031 54.4041C61.6698 54.7939 61.7742 55.1576 61.7276 55.4467Z" fill="white" stroke="#868C98" stroke-linecap="round" stroke-linejoin="round"/>
<path d="M40.7674 57.6413H32.6018C32.2392 57.6413 31.9228 57.3954 31.8333 57.044L31.5892 56.0864H41.78L41.5359 57.044C41.4464 57.3954 41.13 57.6413 40.7674 57.6413Z" fill="white" stroke="#868C98" stroke-linecap="round" stroke-linejoin="round"/>
<path d="M25.3867 48.5382H22.0225C21.6778 48.5382 21.4862 48.3822 21.5932 48.1921L22.0834 47.3215C22.1822 47.146 22.5252 47.0054 22.8506 47.0054H26.026C26.3514 47.0054 26.5597 47.146 26.4905 47.3215L26.1474 48.1921C26.0724 48.3822 25.7314 48.5382 25.3867 48.5382Z" fill="#CDD0D5"/>
<path d="M31.9227 48.5382H28.5584C28.2137 48.5382 27.9848 48.3822 28.0463 48.1921L28.3282 47.3215C28.385 47.146 28.6943 47.0054 29.0197 47.0054H32.1951C32.5205 47.0054 32.7625 47.146 32.7353 47.3215L32.6005 48.1921C32.571 48.3822 32.2674 48.5382 31.9227 48.5382Z" fill="#CDD0D5"/>
<path d="M38.4584 48.5382H35.0942C34.7495 48.5382 34.4832 48.3822 34.4992 48.1921L34.5727 47.3215C34.5876 47.146 34.8632 47.0054 35.1886 47.0054H38.364C38.6894 47.0054 38.9651 47.146 38.9799 47.3215L39.0534 48.1921C39.0694 48.3822 38.8031 48.5382 38.4584 48.5382Z" fill="#CDD0D5"/>
<path d="M44.9942 48.5382H41.63C41.2852 48.5382 40.9816 48.3822 40.9522 48.1921L40.8173 47.3215C40.7901 47.146 41.0321 47.0054 41.3575 47.0054H44.5329C44.8583 47.0054 45.1676 47.146 45.2245 47.3215L45.5063 48.1921C45.5679 48.3822 45.3389 48.5382 44.9942 48.5382Z" fill="#CDD0D5"/>
<path d="M51.5299 48.5382H48.1656C47.8209 48.5382 47.4799 48.3822 47.405 48.1921L47.0619 47.3215C46.9926 47.146 47.201 47.0054 47.5264 47.0054H50.7018C51.0272 47.0054 51.3701 47.146 51.469 47.3215L51.9592 48.1921C52.0662 48.3822 51.8746 48.5382 51.5299 48.5382Z" fill="#CDD0D5"/>
<path d="M26.2407 51.2459H20.6902C20.2391 51.2459 19.9997 51.0219 20.1527 50.7501L20.6564 49.8556C20.7977 49.6046 21.2537 49.4043 21.6771 49.4043H26.887C27.3104 49.4043 27.5887 49.6046 27.5075 49.8556L27.2179 50.7501C27.1299 51.0219 26.6917 51.2459 26.2407 51.2459Z" fill="#CDD0D5"/>
<path d="M33.5551 51.246H29.8573C29.4784 51.246 29.219 51.0575 29.277 50.8283L29.542 49.7825C29.5952 49.5724 29.9261 49.4043 30.2818 49.4043H33.7527C34.1084 49.4043 34.3825 49.5724 34.3648 49.7825L34.2765 50.8283C34.2571 51.0575 33.934 51.246 33.5551 51.246Z" fill="#CDD0D5"/>
<path d="M40.7389 51.246H37.0411C36.6622 51.246 36.3577 51.0575 36.3609 50.8283L36.3755 49.7825C36.3785 49.5724 36.6692 49.4043 37.0248 49.4043H40.4958C40.8514 49.4043 41.1658 49.5724 41.1983 49.7825L41.3603 50.8283C41.3958 51.0575 41.1178 51.246 40.7389 51.246Z" fill="#CDD0D5"/>
<path d="M47.706 51.246H44.2091C43.839 51.246 43.4975 51.0619 43.447 50.8379L43.2073 49.7736C43.1611 49.5685 43.4057 49.4043 43.7531 49.4043H47.0355C47.3829 49.4043 47.728 49.5684 47.8073 49.7736L48.2185 50.8379C48.3051 51.0619 48.0761 51.246 47.706 51.246Z" fill="#CDD0D5"/>
<path d="M53.1027 51.246H50.6813C50.3632 51.246 50.035 51.0876 49.9493 50.8945L49.4282 49.7211C49.3502 49.5452 49.5296 49.4043 49.8282 49.4043H52.1011C52.3996 49.4043 52.7211 49.5452 52.8201 49.7211L53.4808 50.8945C53.5895 51.0876 53.4208 51.246 53.1027 51.246Z" fill="#CDD0D5"/>
<path d="M22.8795 54.55H18.7747C18.3541 54.55 18.1438 54.318 18.3024 54.0362L19.0231 52.7563C19.1672 52.5004 19.6002 52.2959 19.9924 52.2959H23.8195C24.2117 52.2959 24.449 52.5004 24.3481 52.7563L23.8436 54.0362C23.7325 54.318 23.3001 54.55 22.8795 54.55Z" fill="#CDD0D5"/>
<path d="M46.8029 54.55H26.7491C26.3285 54.55 26.0627 54.318 26.1539 54.0362L26.5683 52.7563C26.6511 52.5004 27.0353 52.2959 27.4274 52.2959H46.1246C46.5168 52.2959 46.9009 52.5004 46.9838 52.7563L47.3981 54.0362C47.4894 54.318 47.2235 54.55 46.8029 54.55Z" fill="#CDD0D5"/>
<path d="M54.7774 54.55H50.6726C50.252 54.55 49.8195 54.318 49.7084 54.0362L49.2039 52.7563C49.1031 52.5004 49.3404 52.2959 49.7325 52.2959H53.5596C53.9518 52.2959 54.3848 52.5004 54.529 52.7563L55.2496 54.0362C55.4083 54.318 55.198 54.55 54.7774 54.55Z" fill="#CDD0D5"/>
<path d="M35.2439 36.6016H26.7726C26.4636 36.6016 26.2131 36.8521 26.2131 37.1611V40.4215C26.2131 40.7305 26.4636 40.981 26.7726 40.981H35.2439C35.5529 40.981 35.8034 40.7305 35.8034 40.4215V37.1611C35.8034 36.8521 35.5529 36.6016 35.2439 36.6016Z" fill="#E2E4E9"/>
<path d="M49.6313 36.6016H43.2035C42.8945 36.6016 42.644 36.8521 42.644 37.1611V40.4215C42.644 40.7305 42.8945 40.981 43.2035 40.981H49.6313C49.9403 40.981 50.1908 40.7305 50.1908 40.4215V37.1611C50.1908 36.8521 49.9403 36.6016 49.6313 36.6016Z" fill="#E2E4E9"/>
<path d="M42.0846 31.0159H30.7516C30.4426 31.0159 30.1921 31.2664 30.1921 31.5754V34.8358C30.1921 35.1448 30.4426 35.3953 30.7516 35.3953H42.0846C42.3936 35.3953 42.6441 35.1448 42.6441 34.8358V31.5754C42.6441 31.2664 42.3936 31.0159 42.0846 31.0159Z" fill="#E2E4E9"/>
<path d="M14.2927 24.0669C14.2927 24.0669 11.3708 23.1964 10.4935 26.1054C11.3708 23.1964 8.4549 22.3061 8.4549 22.3061C8.4549 22.3061 11.3768 23.1765 12.2542 20.2676C11.3768 23.1765 14.2927 24.0669 14.2927 24.0669Z" fill="white" stroke="#868C98" stroke-linecap="round" stroke-linejoin="round"/>
<path d="M66.6486 36.2001C66.6486 36.2001 63.7357 37.9559 65.4756 40.8649C63.7357 37.956 60.8108 39.692 60.8108 39.692C60.8108 39.692 63.7237 37.9361 61.9838 35.0271C63.7237 37.9361 66.6486 36.2001 66.6486 36.2001Z" fill="white" stroke="#868C98" stroke-linecap="round" stroke-linejoin="round"/>
<path d="M30.186 25.3433H24.073C23.764 25.3433 23.5135 25.5938 23.5135 25.9028V29.1632C23.5135 29.4722 23.764 29.7227 24.073 29.7227H30.186C30.495 29.7227 30.7455 29.4722 30.7455 29.1632V25.9028C30.7455 25.5938 30.495 25.3433 30.186 25.3433Z" fill="#E2E4E9"/>
<path d="M49.9152 25.3433H43.8022C43.4932 25.3433 43.2427 25.5938 43.2427 25.9028V29.1632C43.2427 29.4722 43.4932 29.7227 43.8022 29.7227H49.9152C50.2242 29.7227 50.4747 29.4722 50.4747 29.1632V25.9028C50.4747 25.5938 50.2242 25.3433 49.9152 25.3433Z" fill="#E2E4E9"/>
<path d="M44.7168 27.447C45.0445 27.447 45.3102 27.1813 45.3102 26.8535C45.3102 26.5257 45.0445 26.26 44.7168 26.26C44.389 26.26 44.1233 26.5257 44.1233 26.8535C44.1233 27.1813 44.389 27.447 44.7168 27.447Z" fill="#868C98"/>
<path d="M38.0018 8.72583H35.4163V12.3448H38.0018V8.72583Z" fill="white" stroke="#868C98" stroke-linecap="round" stroke-linejoin="round"/>
<path d="M46.3855 13.9415L45.3503 12.9062L43.9014 14.3552L44.9366 15.3904L46.3855 13.9415Z" fill="white" stroke="#868C98" stroke-linecap="round" stroke-linejoin="round"/>
<path d="M36.6865 32.8359C42.6809 32.8359 47.5403 27.9764 47.5403 21.982C47.5403 15.9876 42.6809 11.1282 36.6865 11.1282C30.6921 11.1282 25.8326 15.9876 25.8326 21.982C25.8326 27.9764 30.6921 32.8359 36.6865 32.8359Z" fill="#CDD0D5" stroke="#868C98" stroke-linecap="round" stroke-linejoin="round"/>
<path d="M36.6866 30.1973C41.2237 30.1973 44.9018 26.5192 44.9018 21.9821C44.9018 17.4449 41.2237 13.7668 36.6866 13.7668C32.1495 13.7668 28.4714 17.4449 28.4714 21.9821C28.4714 26.5192 32.1495 30.1973 36.6866 30.1973Z" fill="white" stroke="#868C98" stroke-linecap="round" stroke-linejoin="round"/>
<path d="M38.3953 7.17603H34.9777C34.2946 7.17603 33.7408 7.72983 33.7408 8.41298V8.413C33.7408 9.09615 34.2946 9.64996 34.9777 9.64996H38.3953C39.0785 9.64996 39.6323 9.09615 39.6323 8.413V8.41298C39.6323 7.72983 39.0785 7.17603 38.3953 7.17603Z" fill="#E2E4E9" stroke="#868C98" stroke-linecap="round" stroke-linejoin="round"/>
<path d="M47.1636 13.4784L45.7952 12.11C45.5217 11.8365 45.0783 11.8365 44.8047 12.11L44.8047 12.11C44.5312 12.3835 44.5312 12.827 44.8047 13.1005L46.1731 14.4689C46.4466 14.7424 46.8901 14.7424 47.1636 14.4689L47.1636 14.4689C47.4371 14.1954 47.4371 13.7519 47.1636 13.4784Z" fill="#E2E4E9" stroke="#868C98" stroke-linecap="round" stroke-linejoin="round"/>
<path d="M36.6865 17.002H36.6865C36.1132 17.002 35.6485 17.4667 35.6485 18.0399V21.9199C35.6485 22.4932 36.1132 22.9579 36.6865 22.9579H36.6865C37.2598 22.9579 37.7245 22.4932 37.7245 21.9199V18.0399C37.7245 17.4667 37.2598 17.002 36.6865 17.002Z" fill="#868C98"/>
<path d="M39.9924 21.9821V21.9821C39.9924 21.4088 39.5277 20.9441 38.9545 20.9441H36.6865C36.1133 20.9441 35.6486 21.4088 35.6486 21.9821V21.9821C35.6486 22.5553 36.1133 23.0201 36.6865 23.0201H38.9545C39.5277 23.0201 39.9924 22.5553 39.9924 21.9821Z" fill="#868C98"/>
<path d="M45.5898 9.61035V6.71729" stroke="#868C98" stroke-linecap="round" stroke-linejoin="round"/>
<path d="M49.3885 13.2896H52.2816" stroke="#868C98" stroke-linecap="round" stroke-linejoin="round"/>
<path d="M47.6624 10.7341L51.1146 6.71729" stroke="#868C98" stroke-linecap="round" stroke-linejoin="round"/>
</svg>
