<svg xmlns="http://www.w3.org/2000/svg" width="132" height="132" viewBox="0 0 132 132" fill="none">
<g filter="url(#filter0_i_644_62)">
<path d="M62.2848 2.12487C64.2708 -0.08016 67.7292 -0.0801603 69.7152 2.12487L70.9536 3.49985C72.5992 5.3269 75.329 5.68628 77.3914 4.3474L78.9435 3.33979C81.4326 1.72393 84.773 2.61901 86.1207 5.26292L86.9611 6.91159C88.0777 9.10229 90.6215 10.1559 92.9601 9.39647L94.7201 8.82491C97.5426 7.90832 100.538 9.63749 101.155 12.5401L101.54 14.3501C102.052 16.7552 104.236 18.4313 106.692 18.303L108.539 18.2064C111.503 18.0516 113.948 20.497 113.794 23.4605L113.697 25.3085C113.569 27.764 115.245 29.9484 117.65 30.46L119.46 30.845C122.363 31.4624 124.092 34.4574 123.175 37.2799L122.604 39.0399C121.844 41.3785 122.898 43.9223 125.088 45.0389L126.737 45.8793C129.381 47.2269 130.276 50.5674 128.66 53.0565L127.653 54.6086C126.314 56.671 126.673 59.4008 128.5 61.0464L129.875 62.2848C132.08 64.2708 132.08 67.7292 129.875 69.7152L128.5 70.9536C126.673 72.5992 126.314 75.329 127.653 77.3914L128.66 78.9435C130.276 81.4326 129.381 84.773 126.737 86.1207L125.088 86.9611C122.898 88.0777 121.844 90.6215 122.604 92.9601L123.175 94.7201C124.092 97.5426 122.363 100.538 119.46 101.155L117.65 101.54C115.245 102.052 113.569 104.236 113.697 106.692L113.794 108.539C113.948 111.503 111.503 113.948 108.539 113.794L106.692 113.697C104.236 113.569 102.052 115.245 101.54 117.65L101.155 119.46C100.538 122.363 97.5426 124.092 94.7201 123.175L92.9601 122.604C90.6215 121.844 88.0777 122.898 86.9611 125.088L86.1207 126.737C84.7731 129.381 81.4326 130.276 78.9435 128.66L77.3914 127.653C75.329 126.314 72.5992 126.673 70.9536 128.5L69.7152 129.875C67.7292 132.08 64.2708 132.08 62.2848 129.875L61.0464 128.5C59.4008 126.673 56.671 126.314 54.6086 127.653L53.0565 128.66C50.5674 130.276 47.2269 129.381 45.8793 126.737L45.0389 125.088C43.9223 122.898 41.3785 121.844 39.0399 122.604L37.2799 123.175C34.4574 124.092 31.4624 122.363 30.845 119.46L30.46 117.65C29.9484 115.245 27.764 113.569 25.3085 113.697L23.4605 113.794C20.497 113.948 18.0516 111.503 18.2064 108.539L18.303 106.692C18.4313 104.236 16.7552 102.052 14.3501 101.54L12.5401 101.155C9.63749 100.538 7.90832 97.5426 8.82491 94.7201L9.39647 92.9601C10.1559 90.6215 9.10229 88.0777 6.91159 86.9611L5.26292 86.1207C2.61901 84.7731 1.72392 81.4326 3.33979 78.9435L4.3474 77.3914C5.68628 75.329 5.3269 72.5992 3.49985 70.9536L2.12487 69.7152C-0.0801589 67.7292 -0.0801618 64.2708 2.12487 62.2848L3.49985 61.0464C5.3269 59.4008 5.68628 56.671 4.3474 54.6086L3.3398 53.0565C1.72393 50.5674 2.61901 47.2269 5.26292 45.8793L6.91159 45.0389C9.10229 43.9223 10.1559 41.3785 9.39647 39.0399L8.82491 37.2799C7.90832 34.4574 9.63748 31.4624 12.5401 30.845L14.3501 30.46C16.7552 29.9484 18.4313 27.764 18.303 25.3085L18.2064 23.4605C18.0516 20.497 20.497 18.0516 23.4605 18.2064L25.3085 18.303C27.764 18.4313 29.9483 16.7552 30.46 14.3501L30.845 12.5401C31.4624 9.63749 34.4574 7.90832 37.2799 8.82491L39.0399 9.39647C41.3785 10.1559 43.9223 9.10229 45.0389 6.91159L45.8793 5.26293C47.2269 2.61901 50.5674 1.72393 53.0565 3.33979L54.6086 4.3474C56.671 5.68628 59.4008 5.3269 61.0464 3.49985L62.2848 2.12487Z" fill="#FFBEA3"/>
</g>
<defs>
<filter id="filter0_i_644_62" x="0.471069" y="0.471069" width="131.058" height="135.058" filterUnits="userSpaceOnUse" color-interpolation-filters="sRGB">
<feFlood flood-opacity="0" result="BackgroundImageFix"/>
<feBlend mode="normal" in="SourceGraphic" in2="BackgroundImageFix" result="shape"/>
<feColorMatrix in="SourceAlpha" type="matrix" values="0 0 0 0 0 0 0 0 0 0 0 0 0 0 0 0 0 0 127 0" result="hardAlpha"/>
<feOffset dy="4"/>
<feGaussianBlur stdDeviation="2"/>
<feComposite in2="hardAlpha" operator="arithmetic" k2="-1" k3="1"/>
<feColorMatrix type="matrix" values="0 0 0 0 0.952 0 0 0 0 0.647328 0 0 0 0 0.248 0 0 0 0.06 0"/>
<feBlend mode="normal" in2="shape" result="effect1_innerShadow_644_62"/>
</filter>
</defs>
</svg>