<svg xmlns="http://www.w3.org/2000/svg" width="20" height="20" viewBox="0 0 20 20" fill="none">
<path d="M10.75 11.5H9.25C8.0197 11.4995 6.81267 11.8354 5.75941 12.4712C4.70614 13.107 3.8467 14.0186 3.274 15.1075C3.2579 14.9054 3.2499 14.7027 3.25 14.5C3.25 10.3577 6.60775 7 10.75 7V2.875L18.625 9.25L10.75 15.625V11.5ZM9.25 10H12.25V12.481L16.2408 9.25L12.25 6.019V8.5H10.75C9.88769 8.49903 9.03535 8.68436 8.25129 9.04332C7.46724 9.40227 6.76999 9.92637 6.20725 10.5798C7.17574 10.1959 8.20822 9.99919 9.25 10Z" fill="#525866"/>
</svg>