<svg xmlns="http://www.w3.org/2000/svg" width="24" height="24" viewBox="0 0 24 24" fill="none">
<circle cx="12" cy="12" r="10.5" fill="#00A82D"/>
<path d="M9.52501 8.28328C9.52501 8.4176 9.5141 8.64146 9.38314 8.78697C9.24126 8.92128 9.023 8.93247 8.89204 8.93247C8.15531 8.93247 7.13335 8.74734 6.43653 9.03321C7.5 7.125 9.56016 5.857 9.54684 5.96635C9.44868 6.72143 9.52501 7.52381 9.52501 8.28328ZM11.7295 16.9466C11.7295 16.0176 12.4716 15.2565 13.3883 15.2565C13.6612 15.2565 13.8794 15.4803 13.8794 15.7602C13.8794 15.9504 13.7812 16.1071 13.6284 16.1967C13.462 16.2991 13.2316 16.2513 13.0828 16.387C12.9736 16.4765 12.8863 16.622 12.8863 16.7787C12.8863 16.9466 12.9518 17.1033 13.0609 17.2152C13.2574 17.4167 13.5193 17.5286 13.803 17.5286C14.5452 17.5286 15.1454 16.913 15.1454 16.1519C15.1454 15.4691 14.6979 14.8647 14.1086 14.5961C13.2142 14.1375 11.8458 14.3985 11.7404 12.9619C11.5764 13.7217 11.2145 15.0774 10.2344 15.0774C7.27351 15.2578 6.2063 12.8594 6 10.3204C6 9.77194 6.3274 9.40258 6.74211 9.34661C7.48422 9.34661 8.22632 9.34661 8.96843 9.34661C9.3504 9.34661 9.56867 9.24588 9.71054 9.11156C9.89607 8.93247 9.93972 8.67504 9.93972 8.37283C9.93972 7.58559 9.93972 6.375 9.93972 6.01112C9.93972 5.5359 10.3544 5.25 10.8892 5.25C11.2042 5.25 11.4998 5.26107 11.8059 5.33954C12.4716 5.50744 12.6135 6.2014 12.6135 6.2014C12.6135 6.2014 13.8685 6.42526 14.5015 6.53719C15.1017 6.64912 16.5859 6.74985 16.8697 8.28328C17.5354 11.9322 17.1316 15.4691 17.0989 15.4691C16.6296 18.9166 13.8358 18.7487 13.8358 18.7487C12.8202 18.7487 11.7295 18.0556 11.7295 16.9466ZM15.0035 11.0032C14.6434 10.9696 14.3378 11.1151 14.2287 11.3949C14.074 11.7915 15.6692 12.1212 15.6692 11.574C15.6256 11.2606 15.3637 11.0479 15.0035 11.0032Z" fill="white"/>
</svg>