<svg xmlns="http://www.w3.org/2000/svg" width="20" height="20" viewBox="0 0 20 20" fill="none">
<path d="M5.5 6.25V4C5.5 3.80109 5.57902 3.61032 5.71967 3.46967C5.86032 3.32902 6.05109 3.25 6.25 3.25H11.0605L12.5605 4.75H16.75C16.9489 4.75 17.1397 4.82902 17.2803 4.96967C17.421 5.11032 17.5 5.30109 17.5 5.5V13C17.5 13.1989 17.421 13.3897 17.2803 13.5303C17.1397 13.671 16.9489 13.75 16.75 13.75H14.5V16C14.5 16.1989 14.421 16.3897 14.2803 16.5303C14.1397 16.671 13.9489 16.75 13.75 16.75H3.25C3.05109 16.75 2.86032 16.671 2.71967 16.5303C2.57902 16.3897 2.5 16.1989 2.5 16V7C2.5 6.80109 2.57902 6.61032 2.71967 6.46967C2.86032 6.32902 3.05109 6.25 3.25 6.25H5.5ZM5.5 7.75H4V15.25H13V13.75H5.5V7.75ZM7 4.75V12.25H16V6.25H11.9395L10.4395 4.75H7Z" fill="currentColor"/>
</svg>