<svg xmlns="http://www.w3.org/2000/svg" width="24" height="24" viewBox="0 0 24 24" fill="none">
<path d="M6.94383 6.57121C8.3782 5.42196 10.1621 4.79708 12 4.80001C13.9125 4.80001 15.6702 5.46241 17.0562 6.57121L18.3639 5.26351L19.6365 6.53611L18.3288 7.84381C19.2808 9.03554 19.8769 10.4718 20.0486 11.9874C20.2202 13.503 19.9605 15.0362 19.2993 16.4107C18.638 17.7851 17.6022 18.945 16.3109 19.7567C15.0195 20.5685 13.5253 20.9991 12 20.9991C10.4748 20.9991 8.98051 20.5685 7.6892 19.7567C6.39789 18.945 5.36201 17.7851 4.70078 16.4107C4.03954 15.0362 3.77982 13.503 3.9515 11.9874C4.12319 10.4718 4.7193 9.03554 5.67123 7.84381L4.36353 6.53701L5.63613 5.26441L6.94383 6.57211V6.57121ZM12 19.2C12.8274 19.2 13.6466 19.0371 14.4109 18.7204C15.1753 18.4038 15.8698 17.9398 16.4548 17.3548C17.0398 16.7698 17.5039 16.0753 17.8205 15.3109C18.1371 14.5466 18.3 13.7273 18.3 12.9C18.3 12.0727 18.1371 11.2535 17.8205 10.4891C17.5039 9.72475 17.0398 9.03024 16.4548 8.44523C15.8698 7.86022 15.1753 7.39617 14.4109 7.07957C13.6466 6.76296 12.8274 6.60001 12 6.60001C10.3292 6.60001 8.72674 7.26375 7.54526 8.44523C6.36378 9.62671 5.70003 11.2291 5.70003 12.9C5.70003 14.5709 6.36378 16.1733 7.54526 17.3548C8.72674 18.5363 10.3292 19.2 12 19.2ZM12.9 12H15.6L11.1 17.85V13.8H8.40003L12.9 7.94551V12ZM8.40003 2.10001H15.6V3.90001H8.40003V2.10001Z" fill="#525866"/>
</svg>