<svg xmlns="http://www.w3.org/2000/svg" width="24" height="24" viewBox="0 0 24 24" fill="none">
<path d="M17.0562 6.57121L18.3639 5.26351L19.6365 6.53611L18.3288 7.84381C19.621 9.46126 20.2448 11.5121 20.0722 13.5751C19.8995 15.6382 18.9435 17.5568 17.4004 18.937C15.8574 20.3171 13.8444 21.0541 11.775 20.9965C9.70555 20.9389 7.73671 20.0911 6.27283 18.6272C4.80895 17.1633 3.96114 15.1945 3.90353 13.125C3.84592 11.0556 4.58288 9.04262 5.96306 7.49957C7.34323 5.95651 9.26185 5.00048 11.3249 4.82783C13.3879 4.65518 15.4388 5.27901 17.0562 6.57121ZM12 19.2C12.8273 19.2 13.6466 19.0371 14.4109 18.7204C15.1753 18.4038 15.8698 17.9398 16.4548 17.3548C17.0398 16.7698 17.5038 16.0753 17.8204 15.3109C18.1371 14.5466 18.3 13.7273 18.3 12.9C18.3 12.0727 18.1371 11.2535 17.8204 10.4891C17.5038 9.72475 17.0398 9.03024 16.4548 8.44523C15.8698 7.86022 15.1753 7.39617 14.4109 7.07956C13.6466 6.76296 12.8273 6.60001 12 6.60001C10.3291 6.60001 8.72671 7.26375 7.54523 8.44523C6.36375 9.62671 5.7 11.2291 5.7 12.9C5.7 14.5709 6.36375 16.1733 7.54523 17.3548C8.72671 18.5363 10.3291 19.2 12 19.2ZM11.1 8.40001H12.9V13.8H11.1V8.40001ZM8.4 2.10001H15.6V3.90001H8.4V2.10001Z" fill="#525866"/>
</svg>